STARTFONT 2.1
FONT -FontForge-Alice1 MX-Book-R-Normal--18-170-75-75-P-94-ISO10646-1
SIZE 17 75 75
FONTBOUNDINGBOX 18 17 -1 -4
COMMENT "Generated by fontforge, http://fontforge.sourceforge.net"
COMMENT "Unrestricted."
STARTPROPERTIES 40
FOUNDRY "FontForge"
FAMILY_NAME "Alice1 MX"
WEIGHT_NAME "Book"
SLANT "R"
SETWIDTH_NAME "Normal"
ADD_STYLE_NAME ""
PIXEL_SIZE 18
POINT_SIZE 170
RESOLUTION_X 75
RESOLUTION_Y 75
SPACING "P"
AVERAGE_WIDTH 94
CHARSET_REGISTRY "ISO10646"
CHARSET_ENCODING "1"
FONTNAME_REGISTRY ""
CHARSET_COLLECTIONS "ISO10646-1"
FONT_NAME "Alice1MX"
FACE_NAME "Alice1 MX"
COPYRIGHT "Unrestricted."
FONT_VERSION "2.001"
FONT_ASCENT 14
FONT_DESCENT 4
UNDERLINE_POSITION -2
UNDERLINE_THICKNESS 1
X_HEIGHT 8
CAP_HEIGHT 11
RAW_ASCENT 799
RAW_DESCENT 200
NORM_SPACE 5
RELATIVE_WEIGHT 40
RELATIVE_SETWIDTH 50
SUPERSCRIPT_X 0
SUPERSCRIPT_Y 6
SUPERSCRIPT_SIZE 11
SUBSCRIPT_X 0
SUBSCRIPT_Y 2
SUBSCRIPT_SIZE 11
FIGURE_WIDTH 10
AVG_LOWERCASE_WIDTH 88
AVG_UPPERCASE_WIDTH 120
ENDPROPERTIES
CHARS 95
STARTCHAR space
ENCODING 32
SWIDTH 277 0
DWIDTH 5 0
BBX 1 1 0 0
BITMAP
00
ENDCHAR
STARTCHAR exclam
ENCODING 33
SWIDTH 277 0
DWIDTH 5 0
BBX 1 12 2 0
BITMAP
80
80
80
80
80
80
80
80
80
00
00
80
ENDCHAR
STARTCHAR quotedbl
ENCODING 34
SWIDTH 354 0
DWIDTH 6 0
BBX 4 4 1 8
BITMAP
90
90
90
90
ENDCHAR
STARTCHAR numbersign
ENCODING 35
SWIDTH 556 0
DWIDTH 10 0
BBX 9 12 0 0
BITMAP
1100
1100
1100
FF80
1200
2200
2200
FF80
2200
4400
4400
4400
ENDCHAR
STARTCHAR dollar
ENCODING 36
SWIDTH 556 0
DWIDTH 10 0
BBX 9 15 0 -2
BITMAP
0800
3F00
4900
4800
4800
4800
3E00
0F00
0880
0880
C880
4900
2A00
1C00
0800
ENDCHAR
STARTCHAR percent
ENCODING 37
SWIDTH 889 0
DWIDTH 16 0
BBX 13 12 1 0
BITMAP
7040
8880
8880
8900
9100
7200
0270
0488
0488
0888
1088
1070
ENDCHAR
STARTCHAR ampersand
ENCODING 38
SWIDTH 666 0
DWIDTH 12 0
BBX 10 12 1 0
BITMAP
1C00
2200
2200
2200
1400
1800
6C00
8480
8700
8300
4780
3CC0
ENDCHAR
STARTCHAR quotesingle
ENCODING 39
SWIDTH 190 0
DWIDTH 3 0
BBX 1 4 1 8
BITMAP
80
80
80
80
ENDCHAR
STARTCHAR parenleft
ENCODING 40
SWIDTH 333 0
DWIDTH 6 0
BBX 3 15 1 -3
BITMAP
20
40
40
80
80
80
80
80
80
80
80
80
40
40
20
ENDCHAR
STARTCHAR parenright
ENCODING 41
SWIDTH 333 0
DWIDTH 6 0
BBX 3 15 1 -3
BITMAP
80
80
40
40
20
20
20
20
20
20
20
40
40
40
80
ENDCHAR
STARTCHAR asterisk
ENCODING 42
SWIDTH 389 0
DWIDTH 7 0
BBX 5 4 1 8
BITMAP
20
A8
70
50
ENDCHAR
STARTCHAR plus
ENCODING 43
SWIDTH 583 0
DWIDTH 11 0
BBX 7 8 2 2
BITMAP
10
10
10
FE
10
10
10
10
ENDCHAR
STARTCHAR comma
ENCODING 44
SWIDTH 277 0
DWIDTH 5 0
BBX 1 4 2 -2
BITMAP
80
80
80
80
ENDCHAR
STARTCHAR hyphen
ENCODING 45
SWIDTH 399 0
DWIDTH 7 0
BBX 6 1 0 4
BITMAP
FC
ENDCHAR
STARTCHAR period
ENCODING 46
SWIDTH 277 0
DWIDTH 5 0
BBX 1 1 2 0
BITMAP
80
ENDCHAR
STARTCHAR slash
ENCODING 47
SWIDTH 277 0
DWIDTH 5 0
BBX 5 12 0 0
BITMAP
18
10
10
10
20
20
20
40
40
40
40
80
ENDCHAR
STARTCHAR zero
ENCODING 48
SWIDTH 556 0
DWIDTH 10 0
BBX 8 12 1 0
BITMAP
3C
42
81
81
81
81
81
81
81
81
42
3C
ENDCHAR
STARTCHAR one
ENCODING 49
SWIDTH 556 0
DWIDTH 10 0
BBX 4 12 2 0
BITMAP
10
30
50
90
10
10
10
10
10
10
10
10
ENDCHAR
STARTCHAR two
ENCODING 50
SWIDTH 556 0
DWIDTH 10 0
BBX 7 12 2 0
BITMAP
7C
42
82
02
02
04
08
10
20
40
80
FE
ENDCHAR
STARTCHAR three
ENCODING 51
SWIDTH 556 0
DWIDTH 10 0
BBX 8 12 1 0
BITMAP
3C
42
42
82
04
18
06
01
01
41
63
3E
ENDCHAR
STARTCHAR four
ENCODING 52
SWIDTH 556 0
DWIDTH 10 0
BBX 8 12 1 0
BITMAP
04
0C
14
14
24
44
44
84
FF
04
04
04
ENDCHAR
STARTCHAR five
ENCODING 53
SWIDTH 556 0
DWIDTH 10 0
BBX 7 12 2 0
BITMAP
7E
40
80
80
BC
C6
02
02
02
82
C4
78
ENDCHAR
STARTCHAR six
ENCODING 54
SWIDTH 556 0
DWIDTH 10 0
BBX 8 12 1 0
BITMAP
3E
43
81
80
BE
C3
81
81
81
81
42
3C
ENDCHAR
STARTCHAR seven
ENCODING 55
SWIDTH 556 0
DWIDTH 10 0
BBX 8 12 1 0
BITMAP
FF
02
04
04
08
08
10
10
30
20
20
20
ENDCHAR
STARTCHAR eight
ENCODING 56
SWIDTH 556 0
DWIDTH 10 0
BBX 8 12 1 0
BITMAP
7C
C2
82
82
46
38
66
81
81
81
43
3C
ENDCHAR
STARTCHAR nine
ENCODING 57
SWIDTH 556 0
DWIDTH 10 0
BBX 8 12 1 0
BITMAP
3C
42
81
81
81
43
3D
01
01
42
42
3C
ENDCHAR
STARTCHAR colon
ENCODING 58
SWIDTH 277 0
DWIDTH 5 0
BBX 1 9 2 0
BITMAP
80
00
00
00
00
00
00
00
80
ENDCHAR
STARTCHAR semicolon
ENCODING 59
SWIDTH 277 0
DWIDTH 5 0
BBX 1 11 2 -2
BITMAP
80
00
00
00
00
00
00
80
80
80
80
ENDCHAR
STARTCHAR less
ENCODING 60
SWIDTH 583 0
DWIDTH 11 0
BBX 8 8 1 2
BITMAP
01
06
38
C0
C0
38
06
01
ENDCHAR
STARTCHAR equal
ENCODING 61
SWIDTH 312 0
DWIDTH 6 0
BBX 5 5 0 2
BITMAP
F8
00
00
00
F8
ENDCHAR
STARTCHAR greater
ENCODING 62
SWIDTH 583 0
DWIDTH 11 0
BBX 8 8 1 2
BITMAP
80
70
0C
03
03
0C
70
80
ENDCHAR
STARTCHAR question
ENCODING 63
SWIDTH 556 0
DWIDTH 10 0
BBX 7 12 2 0
BITMAP
7C
C6
82
02
06
0C
10
30
20
00
00
20
ENDCHAR
STARTCHAR at
ENCODING 64
SWIDTH 1015 0
DWIDTH 19 0
BBX 16 16 1 -4
BITMAP
07F0
1808
3006
4392
4451
8431
8821
8821
8821
8862
84E4
8738
4003
2006
1818
07F0
ENDCHAR
STARTCHAR A
ENCODING 65
SWIDTH 666 0
DWIDTH 12 0
BBX 11 12 0 0
BITMAP
0600
0A00
0A00
0900
1100
1080
1080
3FC0
2040
6040
4060
C020
ENDCHAR
STARTCHAR B
ENCODING 66
SWIDTH 666 0
DWIDTH 12 0
BBX 9 12 2 0
BITMAP
FE00
8100
8100
8100
8300
FE00
8100
8080
8080
8080
8180
FF00
ENDCHAR
STARTCHAR C
ENCODING 67
SWIDTH 722 0
DWIDTH 13 0
BBX 10 12 1 0
BITMAP
1F00
6080
40C0
8000
8000
8000
8000
8000
8040
40C0
6180
1F00
ENDCHAR
STARTCHAR D
ENCODING 68
SWIDTH 722 0
DWIDTH 13 0
BBX 9 12 2 0
BITMAP
FE00
8300
8180
8080
8080
8080
8080
8080
8080
8180
8300
FE00
ENDCHAR
STARTCHAR E
ENCODING 69
SWIDTH 666 0
DWIDTH 12 0
BBX 9 12 2 0
BITMAP
FF80
8000
8000
8000
8000
FF00
8000
8000
8000
8000
8000
FF80
ENDCHAR
STARTCHAR F
ENCODING 70
SWIDTH 610 0
DWIDTH 11 0
BBX 8 12 2 0
BITMAP
FF
80
80
80
80
FE
80
80
80
80
80
80
ENDCHAR
STARTCHAR G
ENCODING 71
SWIDTH 777 0
DWIDTH 14 0
BBX 11 12 1 0
BITMAP
1F00
60C0
4040
8060
8000
8000
83E0
8020
8020
4020
2060
1F80
ENDCHAR
STARTCHAR H
ENCODING 72
SWIDTH 722 0
DWIDTH 13 0
BBX 9 12 2 0
BITMAP
8080
8080
8080
8080
8080
FF80
8080
8080
8080
8080
8080
8080
ENDCHAR
STARTCHAR I
ENCODING 73
SWIDTH 277 0
DWIDTH 5 0
BBX 1 12 2 0
BITMAP
80
80
80
80
80
80
80
80
80
80
80
80
ENDCHAR
STARTCHAR J
ENCODING 74
SWIDTH 500 0
DWIDTH 9 0
BBX 6 12 1 0
BITMAP
04
04
04
04
04
04
04
04
04
84
8C
78
ENDCHAR
STARTCHAR K
ENCODING 75
SWIDTH 666 0
DWIDTH 12 0
BBX 10 12 2 0
BITMAP
8180
8300
8600
8C00
9000
B800
C800
8400
8600
8300
8100
80C0
ENDCHAR
STARTCHAR L
ENCODING 76
SWIDTH 556 0
DWIDTH 10 0
BBX 7 12 2 0
BITMAP
80
80
80
80
80
80
80
80
80
80
80
FE
ENDCHAR
STARTCHAR M
ENCODING 77
SWIDTH 833 0
DWIDTH 15 0
BBX 11 12 2 0
BITMAP
C060
C060
A0A0
A0A0
A0A0
9120
9120
9120
8A20
8A20
8A20
8420
ENDCHAR
STARTCHAR N
ENCODING 78
SWIDTH 722 0
DWIDTH 13 0
BBX 9 12 2 0
BITMAP
C080
C080
E080
B080
9080
9880
8C80
8480
8680
8380
8180
8180
ENDCHAR
STARTCHAR O
ENCODING 79
SWIDTH 777 0
DWIDTH 13 0
BBX 11 12 1 0
BITMAP
1F00
20C0
4040
8020
8020
8020
8020
8020
8020
4040
20C0
1F00
ENDCHAR
STARTCHAR P
ENCODING 80
SWIDTH 666 0
DWIDTH 11 0
BBX 8 12 2 0
BITMAP
FE
83
81
81
81
83
FE
80
80
80
80
80
ENDCHAR
STARTCHAR Q
ENCODING 81
SWIDTH 777 0
DWIDTH 13 0
BBX 11 13 1 -1
BITMAP
1F00
20C0
4040
8020
8020
8020
8020
8020
8020
4240
2180
1F40
0020
ENDCHAR
STARTCHAR R
ENCODING 82
SWIDTH 722 0
DWIDTH 13 0
BBX 10 12 2 0
BITMAP
FF00
8180
8080
8080
8180
FE00
8400
8200
8100
8180
8080
80C0
ENDCHAR
STARTCHAR S
ENCODING 83
SWIDTH 666 0
DWIDTH 11 0
BBX 8 12 2 0
BITMAP
7C
C3
81
80
C0
78
0E
01
81
81
C3
3C
ENDCHAR
STARTCHAR T
ENCODING 84
SWIDTH 610 0
DWIDTH 11 0
BBX 9 12 1 0
BITMAP
FF80
0800
0800
0800
0800
0800
0800
0800
0800
0800
0800
0800
ENDCHAR
STARTCHAR U
ENCODING 85
SWIDTH 722 0
DWIDTH 13 0
BBX 9 12 2 0
BITMAP
8080
8080
8080
8080
8080
8080
8080
8080
8080
8080
4100
3E00
ENDCHAR
STARTCHAR V
ENCODING 86
SWIDTH 666 0
DWIDTH 12 0
BBX 11 12 0 0
BITMAP
C020
4060
6040
2040
20C0
1080
1080
1100
0900
0900
0600
0600
ENDCHAR
STARTCHAR W
ENCODING 87
SWIDTH 943 0
DWIDTH 17 0
BBX 15 12 1 0
BITMAP
8302
8282
8284
4284
4484
444C
4448
2848
2828
2838
3830
1030
ENDCHAR
STARTCHAR X
ENCODING 88
SWIDTH 666 0
DWIDTH 12 0
BBX 10 12 1 0
BITMAP
C0C0
6180
2100
1200
1C00
0C00
0C00
1200
3300
6100
4080
80C0
ENDCHAR
STARTCHAR Y
ENCODING 89
SWIDTH 666 0
DWIDTH 12 0
BBX 11 12 0 0
BITMAP
C060
60C0
2080
1100
1900
0A00
0400
0400
0400
0400
0400
0400
ENDCHAR
STARTCHAR Z
ENCODING 90
SWIDTH 610 0
DWIDTH 11 0
BBX 9 12 1 0
BITMAP
FF80
0180
0300
0200
0400
0800
1000
3000
2000
4000
8000
FF80
ENDCHAR
STARTCHAR bracketleft
ENCODING 91
SWIDTH 277 0
DWIDTH 5 0
BBX 2 15 2 -3
BITMAP
C0
80
80
80
80
80
80
80
80
80
80
80
80
80
C0
ENDCHAR
STARTCHAR backslash
ENCODING 92
SWIDTH 277 0
DWIDTH 5 0
BBX 5 12 0 0
BITMAP
80
40
40
40
40
20
20
20
10
10
10
18
ENDCHAR
STARTCHAR bracketright
ENCODING 93
SWIDTH 277 0
DWIDTH 5 0
BBX 2 15 1 -3
BITMAP
C0
40
40
40
40
40
40
40
40
40
40
40
40
40
C0
ENDCHAR
STARTCHAR asciicircum
ENCODING 94
SWIDTH 469 0
DWIDTH 8 0
BBX 6 7 1 6
BITMAP
20
30
30
48
48
44
84
ENDCHAR
STARTCHAR underscore
ENCODING 95
SWIDTH 556 0
DWIDTH 10 0
BBX 10 1 0 -3
BITMAP
FFC0
ENDCHAR
STARTCHAR grave
ENCODING 96
SWIDTH 333 0
DWIDTH 6 0
BBX 3 2 1 10
BITMAP
C0
60
ENDCHAR
STARTCHAR a
ENCODING 97
SWIDTH 556 0
DWIDTH 10 0
BBX 7 9 1 0
BITMAP
3C
42
82
02
3E
C2
82
86
7A
ENDCHAR
STARTCHAR b
ENCODING 98
SWIDTH 556 0
DWIDTH 10 0
BBX 8 12 1 0
BITMAP
80
80
80
BC
C2
81
81
81
81
81
C2
BC
ENDCHAR
STARTCHAR c
ENCODING 99
SWIDTH 500 0
DWIDTH 9 0
BBX 7 9 1 0
BITMAP
3C
44
82
80
80
80
82
44
78
ENDCHAR
STARTCHAR d
ENCODING 100
SWIDTH 556 0
DWIDTH 10 0
BBX 7 12 1 0
BITMAP
02
02
02
3A
46
82
82
82
82
82
46
3A
ENDCHAR
STARTCHAR e
ENCODING 101
SWIDTH 556 0
DWIDTH 10 0
BBX 8 9 1 0
BITMAP
3C
42
82
81
FF
80
83
42
3C
ENDCHAR
STARTCHAR f
ENCODING 102
SWIDTH 277 0
DWIDTH 5 0
BBX 4 12 1 0
BITMAP
70
40
40
F0
40
40
40
40
40
40
40
40
ENDCHAR
STARTCHAR g
ENCODING 103
SWIDTH 556 0
DWIDTH 10 0
BBX 7 13 1 -4
BITMAP
3A
46
82
82
82
82
82
46
3A
02
82
44
78
ENDCHAR
STARTCHAR h
ENCODING 104
SWIDTH 556 0
DWIDTH 10 0
BBX 7 12 1 0
BITMAP
80
80
80
BC
C6
82
82
82
82
82
82
82
ENDCHAR
STARTCHAR i
ENCODING 105
SWIDTH 222 0
DWIDTH 4 0
BBX 1 12 1 0
BITMAP
80
00
00
80
80
80
80
80
80
80
80
80
ENDCHAR
STARTCHAR j
ENCODING 106
SWIDTH 222 0
DWIDTH 4 0
BBX 3 15 -1 -3
BITMAP
20
00
00
20
20
20
20
20
20
20
20
20
20
20
C0
ENDCHAR
STARTCHAR k
ENCODING 107
SWIDTH 500 0
DWIDTH 9 0
BBX 7 12 1 0
BITMAP
80
80
80
8C
88
90
A0
F0
90
88
8C
86
ENDCHAR
STARTCHAR l
ENCODING 108
SWIDTH 222 0
DWIDTH 4 0
BBX 1 12 1 0
BITMAP
80
80
80
80
80
80
80
80
80
80
80
80
ENDCHAR
STARTCHAR m
ENCODING 109
SWIDTH 833 0
DWIDTH 15 0
BBX 12 9 1 0
BITMAP
BCE0
C510
8210
8210
8210
8210
8210
8210
8210
ENDCHAR
STARTCHAR n
ENCODING 110
SWIDTH 556 0
DWIDTH 10 0
BBX 7 9 1 0
BITMAP
BC
C6
82
82
82
82
82
82
82
ENDCHAR
STARTCHAR o
ENCODING 111
SWIDTH 556 0
DWIDTH 10 0
BBX 8 9 1 0
BITMAP
3C
42
81
81
81
81
81
42
3C
ENDCHAR
STARTCHAR p
ENCODING 112
SWIDTH 556 0
DWIDTH 10 0
BBX 8 12 1 -3
BITMAP
BC
C2
C1
81
81
81
81
C2
BC
80
80
80
ENDCHAR
STARTCHAR q
ENCODING 113
SWIDTH 556 0
DWIDTH 10 0
BBX 7 12 1 -3
BITMAP
3A
46
82
82
82
82
82
46
3A
02
02
02
ENDCHAR
STARTCHAR r
ENCODING 114
SWIDTH 333 0
DWIDTH 6 0
BBX 4 9 1 0
BITMAP
B0
C0
80
80
80
80
80
80
80
ENDCHAR
STARTCHAR s
ENCODING 115
SWIDTH 500 0
DWIDTH 9 0
BBX 7 9 1 0
BITMAP
78
84
80
C0
3C
02
82
42
3C
ENDCHAR
STARTCHAR t
ENCODING 116
SWIDTH 277 0
DWIDTH 5 0
BBX 4 12 1 0
BITMAP
40
40
40
F0
40
40
40
40
40
40
40
70
ENDCHAR
STARTCHAR u
ENCODING 117
SWIDTH 556 0
DWIDTH 10 0
BBX 7 9 1 0
BITMAP
82
82
82
82
82
82
82
C6
7A
ENDCHAR
STARTCHAR v
ENCODING 118
SWIDTH 500 0
DWIDTH 9 0
BBX 7 9 1 0
BITMAP
82
82
44
44
48
28
30
10
10
ENDCHAR
STARTCHAR w
ENCODING 119
SWIDTH 722 0
DWIDTH 13 0
BBX 12 9 0 0
BITMAP
C210
4610
4510
6520
2520
2920
28C0
18C0
10C0
ENDCHAR
STARTCHAR x
ENCODING 120
SWIDTH 500 0
DWIDTH 9 0
BBX 7 9 1 0
BITMAP
C6
44
28
30
10
28
68
44
82
ENDCHAR
STARTCHAR y
ENCODING 121
SWIDTH 500 0
DWIDTH 9 0
BBX 7 12 1 -3
BITMAP
82
82
44
44
64
28
28
18
10
10
20
C0
ENDCHAR
STARTCHAR z
ENCODING 122
SWIDTH 500 0
DWIDTH 9 0
BBX 7 9 1 0
BITMAP
FE
04
08
08
10
20
40
80
FE
ENDCHAR
STARTCHAR braceleft
ENCODING 123
SWIDTH 333 0
DWIDTH 6 0
BBX 5 15 1 -3
BITMAP
18
20
20
20
20
20
40
80
40
20
20
20
20
20
18
ENDCHAR
STARTCHAR bar
ENCODING 124
SWIDTH 259 0
DWIDTH 5 0
BBX 1 15 2 -3
BITMAP
80
80
80
80
80
80
80
80
80
80
80
80
80
80
80
ENDCHAR
STARTCHAR braceright
ENCODING 125
SWIDTH 333 0
DWIDTH 6 0
BBX 5 15 0 -3
BITMAP
C0
20
20
20
20
20
10
08
10
20
20
20
20
20
C0
ENDCHAR
STARTCHAR asciitilde
ENCODING 126
SWIDTH 583 0
DWIDTH 11 0
BBX 8 2 1 5
BITMAP
F1
8F
ENDCHAR
ENDFONT
